# xmcd CD database file
#
# Track frame offsets:
#	150
#	14770
#	31022
#	43462
#	60925
#	72750
#	85087
#	95525
#	109395
#	123815
#	139935
#	153455
#	173227
#	186805
#	207265
#	217922
#	233845
#	245980
#
# Disc length: 3403 seconds
#
# Revision: 1
# Processed by: cddbd v1.4PL0 Copyright (c) Steve Scherf et al.
# Submitted via: CDex 1.40Beta9
#
DISCID=fe0d4912
DTITLE=Suaznne Prentice - The Best of Suzanne Prentice · 18 Original Golden Greats
DYEAR=1993
DGENRE=Country
TTITLE0=One Day At A Time
TTITLE1=The Other Side of Me
TTITLE2=Womanhood
TTITLE3=Dreamin' My Dreams
TTITLE4=Sweet Country Music
TTITLE5=I Saw A Man
TTITLE6=Love Is Like A Butterfly
TTITLE7=Teddy Bear Song
TTITLE8=There's Dust On Mother's Bible
TTITLE9=When I Dream
TTITLE10=Lay It All Out
TTITLE11=Amazing Grace
TTITLE12=Talking In Your Sleep
TTITLE13=How Great Thou Art
TTITLE14=The Wedding Song
TTITLE15=Daddy's Waiting
TTITLE16=The Old Rugged Cross
TTITLE17=Funny Face
EXTD=YEAR: 1993 ID3G: 2
EXTT0=
EXTT1=
EXTT2=
EXTT3=
EXTT4=
EXTT5=
EXTT6=
EXTT7=
EXTT8=
EXTT9=
EXTT10=
EXTT11=
EXTT12=
EXTT13=
EXTT14=
EXTT15=
EXTT16=
EXTT17=
PLAYORDER=
